<svg width="5419" height="3384" viewBox="0 0 5419 3384" fill="none" xmlns="http://www.w3.org/2000/svg">
<g filter="url(#filter0_b_102_71)">
<rect width="5419" height="3383.86" fill="#3ECCD4" fill-opacity="0.5"/>
</g>
<rect x="361.267" y="361.267" width="2408.44" height="2661.33" fill="#7ADFE3"/>
<line x1="3152.39" y1="412.104" x2="5048.36" y2="412.104" stroke="#F0697E" stroke-width="91" stroke-linecap="round"/>
<line x1="3152.39" y1="966.047" x2="5048.36" y2="966.047" stroke="#9BE7EA" stroke-width="91" stroke-linecap="round"/>
<line x1="3152.39" y1="592.738" x2="5048.36" y2="592.738" stroke="#F0697E" stroke-width="91" stroke-linecap="round"/>
<line x1="3152.39" y1="1170.76" x2="5048.36" y2="1170.76" stroke="#9BE7EA" stroke-width="91" stroke-linecap="round"/>
<line x1="3152.39" y1="1339.36" x2="5048.36" y2="1339.36" stroke="#9BE7EA" stroke-width="91" stroke-linecap="round"/>
<line x1="3152.39" y1="785.413" x2="4626.88" y2="785.413" stroke="#9BE7EA" stroke-width="91" stroke-linecap="round"/>
<line x1="3152.39" y1="2784.42" x2="5048.36" y2="2784.42" stroke="#9BE7EA" stroke-width="91" stroke-linecap="round"/>
<line x1="3152.39" y1="1532.03" x2="4626.88" y2="1532.03" stroke="#9BE7EA" stroke-width="91" stroke-linecap="round"/>
<line x1="3152.39" y1="2977.1" x2="4626.88" y2="2977.1" stroke="#9BE7EA" stroke-width="91" stroke-linecap="round"/>
<line x1="3152.39" y1="1833.09" x2="4277.66" y2="1833.09" stroke="#9BE7EA" stroke-width="91" stroke-linecap="round"/>
<line x1="3152.39" y1="2037.8" x2="4277.66" y2="2037.8" stroke="#9BE7EA" stroke-width="91" stroke-linecap="round"/>
<line x1="3152.39" y1="2459.28" x2="4277.66" y2="2459.28" stroke="#9BE7EA" stroke-width="91" stroke-linecap="round"/>
<line x1="3152.39" y1="2254.56" x2="4277.66" y2="2254.56" stroke="#9BE7EA" stroke-width="91" stroke-linecap="round"/>
<line x1="4525.21" y1="1833.09" x2="4626.88" y2="1833.09" stroke="#F0697E" stroke-width="91" stroke-linecap="round"/>
<line x1="4525.21" y1="2037.8" x2="4626.88" y2="2037.8" stroke="#F0697E" stroke-width="91" stroke-linecap="round"/>
<line x1="4525.21" y1="2459.28" x2="4626.88" y2="2459.28" stroke="#F0697E" stroke-width="91" stroke-linecap="round"/>
<path d="M2302.41 806.833H1030.13C994.999 806.833 966.514 835.315 966.514 870.449V2185.14C966.514 2220.27 994.995 2248.75 1030.13 2248.75H2302.41C2337.54 2248.75 2366.03 2220.27 2366.03 2185.14V870.445C2366.03 835.315 2337.54 806.833 2302.41 806.833ZM2238.8 1315.74H2047.96C2012.83 1315.74 1984.34 1344.23 1984.34 1379.36C1984.34 1414.49 2012.82 1442.98 2047.96 1442.98H2238.8V2121.53H1433.02V1930.68C1433.02 1895.55 1404.54 1867.07 1369.4 1867.07C1334.27 1867.07 1305.79 1895.55 1305.79 1930.68V2121.53H1093.74V934.06H1305.79V1633.81C1305.79 1668.94 1334.27 1697.43 1369.4 1697.43C1404.54 1697.43 1433.02 1668.95 1433.02 1633.81V1442.97H1751.09C1786.22 1442.97 1814.7 1414.49 1814.7 1379.36C1814.7 1344.22 1786.22 1315.74 1751.09 1315.74H1433.02V934.06H2238.79L2238.8 1315.74Z" fill="#F0697E"/>
<path d="M661.947 795.162C655.503 788.718 645.056 788.718 638.613 795.162L533.607 900.167C527.164 906.611 527.164 917.058 533.607 923.502C540.051 929.945 550.498 929.945 556.942 923.502L650.28 830.163L743.618 923.502C750.062 929.945 760.509 929.945 766.952 923.502C773.396 917.058 773.396 906.611 766.952 900.167L661.947 795.162ZM638.613 2263.56C645.056 2270.01 655.503 2270.01 661.947 2263.56L766.952 2158.56C773.396 2152.11 773.396 2141.67 766.952 2135.22C760.509 2128.78 750.062 2128.78 743.618 2135.22L650.28 2228.56L556.942 2135.22C550.498 2128.78 540.051 2128.78 533.607 2135.22C527.164 2141.67 527.164 2152.11 533.607 2158.56L638.613 2263.56ZM633.78 806.829L633.78 2251.9L666.78 2251.9L666.78 806.829L633.78 806.829Z" fill="#F0697E"/>
<path d="M2371.94 2588.7C2378.39 2582.26 2378.39 2571.81 2371.94 2565.37L2266.94 2460.36C2260.49 2453.92 2250.05 2453.92 2243.6 2460.36C2237.16 2466.81 2237.16 2477.25 2243.6 2483.7L2336.94 2577.04L2243.6 2670.37C2237.16 2676.82 2237.16 2687.26 2243.6 2693.71C2250.05 2700.15 2260.49 2700.15 2266.94 2693.71L2371.94 2588.7ZM951.711 2565.37C945.267 2571.81 945.267 2582.26 951.711 2588.7L1056.72 2693.71C1063.16 2700.15 1073.61 2700.15 1080.05 2693.71C1086.49 2687.26 1086.49 2676.82 1080.05 2670.37L986.712 2577.04L1080.05 2483.7C1086.49 2477.25 1086.49 2466.81 1080.05 2460.36C1073.61 2453.92 1063.16 2453.92 1056.72 2460.36L951.711 2565.37ZM2360.28 2560.54H963.378V2593.54H2360.28V2560.54Z" fill="#F0697E"/>
<defs>
<filter id="filter0_b_102_71" x="-5" y="-5" width="5429" height="3393.86" filterUnits="userSpaceOnUse" color-interpolation-filters="sRGB">
<feFlood flood-opacity="0" result="BackgroundImageFix"/>
<feGaussianBlur in="BackgroundImageFix" stdDeviation="2.5"/>
<feComposite in2="SourceAlpha" operator="in" result="effect1_backgroundBlur_102_71"/>
<feBlend mode="normal" in="SourceGraphic" in2="effect1_backgroundBlur_102_71" result="shape"/>
</filter>
</defs>
</svg>
